#!OML:ASF X:\für Bonn\!DataBase\2005_08_12_Daniel\c3d\Daniel.ASF
:FULLY-SPECIFIED
:DEGREES
98
root -2.97787 6.87203 -2.7859 314.212 -81.4372 -347.45
lowerback 57.9683 -4.23662 0.764304
upperback 7.0981 -7.04903 -2.46468
thorax -13.8025 -3.79796 0.531712
lowerneck 8.22032 2.24093 -0.938924
upperneck -5.46615 2.67657 -2.74169
head -3.18142 1.45536 -0.871323
rclavicle 9.0447e-015 -3.02153e-014
rhumerus 67.2464 7.14786 -80.0521
rradius 13.2036
rwrist 46.8492
rhand -23.2277 13.9362
rfingers 7.12502
rthumb 3.22324 -16.0192
lclavicle 9.0447e-015 -3.02153e-014
lhumerus 65.6305 -7.08717 69.1474
lradius 15.4885
lwrist -43.4057
lhand -26.4374 1.85542
lfingers 7.12502
lthumb 0.123296 31.8351
rfemur 20.0952 -44.9353 -141.525
rtibia 155.6
rfoot -70.2801 65.3149
rtoes -5.57763
lfemur -60.4457 56.8305 24.598
ltibia 151.551
lfoot -22.6619 -56.6781
ltoes -0.0798965
99
root -2.94631 7.02998 -2.78287 314.521 -81.4523 -347.129
lowerback 57.7466 -4.25848 0.801417
upperback 7.04152 -7.03066 -2.47036
thorax -13.8586 -3.77917 0.499467
lowerneck 7.85785 2.23715 -0.990199
upperneck -5.38876 2.67844 -2.69814
head -3.08626 1.45275 -0.840526
rclavicle 8.15017e-015 -4.77083e-015
rhumerus 67.2174 6.77273 -81.221
rradius 12.987
rwrist 48.6309
rhand -23.1972 14.0883
rfingers 7.12502
rthumb 3.25268 -15.8667
lclavicle 8.15017e-015 -4.77083e-015
lhumerus 65.6956 -7.15661 68.9275
lradius 15.434
lwrist -42.8906
lhand -26.0546 1.88755
lfingers 7.12502
lthumb 0.493033 31.8667
rfemur 22.1481 -46.047 -140.041
rtibia 154.57
rfoot -66.6749 63.9262
rtoes -5.84882
lfemur -62.0292 54.4258 20.3978
ltibia 150.442
lfoot -22.2778 -54.2051
ltoes -0.172944
100
root -2.9142 7.19314 -2.77997 314.904 -81.4584 -346.876
lowerback 57.5161 -4.28235 0.833509
upperback 6.99025 -7.01625 -2.4654
thorax -13.9054 -3.76285 0.482655
lowerneck 7.38844 2.24803 -1.05926
upperneck -5.27946 2.70192 -2.64583
head -2.96039 1.45995 -0.802661
rclavicle -2.09718e-014 -1.31198e-014
rhumerus 67.2387 6.51288 -82.0008
rradius 12.82
rwrist 49.9572
rhand -23.2158 14.2304
rfingers 7.12502
rthumb 3.23471 -15.7248
lclavicle -2.09718e-014 -1.31198e-014
lhumerus 65.7984 -7.08308 69.0417
lradius 15.3384
lwrist -42.808
lhand -25.6012 1.84022
lfingers 7.12502
lthumb 0.930957 31.8179
rfemur 23.8839 -47.3712 -138.217
rtibia 153.466
rfoot -63.2398 62.6016
rtoes -6.08312
lfemur -63.4337 51.7201 16.3997
ltibia 149.268
lfoot -21.8147 -51.6855
ltoes -0.222825
101
root -2.8841 7.36132 -2.77646 315.174 -81.4751 -346.458
lowerback 57.1946 -4.29496 0.845983
upperback 6.93333 -6.99686 -2.46279
thorax -13.9511 -3.74232 0.468239
lowerneck 6.83305 2.25588 -1.16233
upperneck -5.10121 2.72242 -2.58471
head -2.79632 1.46474 -0.753655
rclavicle 3.90612e-014 -3.57812e-015
rhumerus 67.2944 6.34182 -82.5524
rradius 12.6336
rwrist 50.9821
rhand -23.2602 14.3342
rfingers 7.12502
rthumb 3.19179 -15.6217
lclavicle 3.90612e-014 -3.57812e-015
lhumerus 65.8549 -6.90525 69.4146
lradius 15.255
lwrist -43.1662
lhand -25.1151 1.83534
lfingers 7.12502
lthumb 1.40036 31.8105
rfemur 25.2088 -48.953 -136.039
rtibia 152.308
rfoot -59.7817 61.4822
rtoes -6.1215
lfemur -64.4724 48.9878 12.8202
ltibia 148.026
lfoot -21.3734 -49.2541
ltoes -0.148797
102
root -2.85523 7.53109 -2.77374 315.434 -81.4924 -346.027
lowerback 56.8109 -4.28488 0.85009
upperback 6.89713 -6.95375 -2.44928
thorax -13.9638 -3.71323 0.455691
lowerneck 6.26994 2.25382 -1.22023
upperneck -4.90582 2.73215 -2.57056
head -2.62529 1.46454 -0.727093
rclavicle -1.74931e-014 3.57812e-015
rhumerus 67.3561 6.1768 -83.0086
rradius 12.4734
rwrist 51.7412
rhand -23.2375 14.4244
rfingers 7.12502
rthumb 3.21378 -15.5311
lclavicle -1.74931e-014 3.57812e-015
lhumerus 65.9248 -6.61646 70.1627
lradius 15.15
lwrist -44.104
lhand -24.6639 1.80718
lfingers 7.12502
lthumb 1.83621 31.779
rfemur 26.0323 -50.7375 -133.411
rtibia 151.116
rfoot -56.3651 60.3758
rtoes -6.24154
lfemur -65.1725 46.3086 9.69522
ltibia 146.756
lfoot -21.094 -46.952
ltoes 0.0320604
103
root -2.82887 7.70284 -2.77072 315.724 -81.493 -345.611
lowerback 56.3268 -4.29075 0.861333
upperback 6.88161 -6.92812 -2.46031
thorax -13.9469 -3.69181 0.418325
lowerneck 5.865 2.25368 -1.28671
upperneck -4.80639 2.74099 -2.51821
head -2.51784 1.46488 -0.69105
rclavicle 1.50082e-014 -5.56597e-015
rhumerus 67.4215 6.06419 -83.3756
rradius 12.3137
rwrist 52.2168
rhand -23.1689 14.4863
rfingers 7.12502
rthumb 3.28003 -15.4682
lclavicle 1.50082e-014 -5.56597e-015
lhumerus 65.9854 -6.28452 71.0008
lradius 15.0569
lwrist -45.343
lhand -24.3119 1.81888
lfingers 7.12502
lthumb 2.17614 31.7875
rfemur 26.3153 -52.64 -130.366
rtibia 149.878
rfoot -52.9352 59.4415
rtoes -6.28385
lfemur -65.6662 43.6696 6.89507
ltibia 145.48
lfoot -21.0217 -44.7281
ltoes 0.0791476
104
root -2.80511 7.87471 -2.7671 315.934 -81.4923 -345.117
lowerback 55.761 -4.28846 0.873044
upperback 6.87736 -6.89246 -2.47851
thorax -13.9079 -3.66636 0.365546
lowerneck 5.6283 2.24812 -1.3492
upperneck -4.77234 2.73733 -2.47312
head -2.46395 1.46094 -0.661413
rclavicle 7.35503e-015 -2.46493e-014
rhumerus 67.4601 6.00609 -83.5396
rradius 12.1887
rwrist 52.2706
rhand -23.0194 14.5301
rfingers 7.12502
rthumb 3.42436 -15.4222
lclavicle 7.35503e-015 -2.46493e-014
lhumerus 66.0358 -5.93053 71.98
lradius 14.9345
lwrist -46.8939
lhand -24.0718 1.8323
lfingers 7.12502
lthumb 2.40803 31.7985
rfemur 25.8422 -54.6835 -126.685
rtibia 148.622
rfoot -49.4566 58.5013
rtoes -6.22568
lfemur -65.8967 41.1827 4.47331
ltibia 144.175
lfoot -20.9758 -42.7226
ltoes 0.265304
105
root -2.78451 8.05062 -2.76357 316.026 -81.4967 -344.5
lowerback 55.145 -4.26457 0.837511
upperback 6.85833 -6.85285 -2.47772
thorax -13.8726 -3.63731 0.352445
lowerneck 5.5012 2.26016 -1.48527
upperneck -4.75984 2.74927 -2.41057
head -2.43891 1.46647 -0.616391
rclavicle -2.11706e-014 -1.23246e-014
rhumerus 67.4783 6.04089 -83.6125
rradius 12.0534
rwrist 52.0548
rhand -22.8165 14.5635
rfingers 7.12502
rthumb 3.62034 -15.3855
lclavicle -2.11706e-014 -1.23246e-014
lhumerus 66.0573 -5.59659 72.7832
lradius 14.827
lwrist -48.3029
lhand -23.952 1.90536
lfingers 7.12502
lthumb 2.52368 31.8702
rfemur 24.5628 -56.7596 -122.283
rtibia 147.314
rfoot -45.9239 57.6063
rtoes -6.23557
lfemur -65.9204 38.8186 2.34998
ltibia 142.82
lfoot -21.1222 -40.9372
ltoes 0.326768
106
root -2.76603 8.23183 -2.76018 316.302 -81.4938 -344.102
lowerback 54.5605 -4.25665 0.834489
upperback 6.80917 -6.81109 -2.47635
thorax -13.8737 -3.60612 0.326025
lowerneck 5.51879 2.25293 -1.55912
upperneck -4.80954 2.73215 -2.40275
head -2.46005 1.45962 -0.601553
rclavicle -4.47266e-014 1.23246e-014
rhumerus 67.4345 6.06902 -83.6564
rradius 11.9465
rwrist 51.653
rhand -22.637 14.6353
rfingers 7.12502
rthumb 3.79363 -15.3107
lclavicle -4.47266e-014 1.23246e-014
lhumerus 66.0664 -5.3848 73.326
lradius 14.7219
lwrist -49.4318
lhand -23.9427 2.02297
lfingers 7.12502
lthumb 2.53266 31.9877
rfemur 22.2452 -58.7396 -116.851
rtibia 145.94
rfoot -42.4457 56.6295
rtoes -6.17093
lfemur -65.758 36.433 0.518679
ltibia 141.396
lfoot -21.1623 -39.3524
ltoes 0.552107
107
root -2.74878 8.41827 -2.75589 316.485 -81.489 -343.624
lowerback 54.01 -4.2549 0.81714
upperback 6.71806 -6.78285 -2.47562
thorax -13.9236 -3.57753 0.314245
lowerneck 5.57044 2.26118 -1.6859
upperneck -4.82414 2.73317 -2.36482
head -2.47688 1.46168 -0.568821
rclavicle -1.07841e-013 1.86858e-014
rhumerus 67.3637 6.20615 -83.5314
rradius 11.8537
rwrist 50.9449
rhand -22.4663 14.6496
rfingers 7.12502
rthumb 3.95846 -15.2933
lclavicle -1.07841e-013 1.86858e-014
lhumerus 66.0405 -5.29018 73.4439
lradius 14.6409
lwrist -50.0223
lhand -23.9613 2.2007
lfingers 7.12502
lthumb 2.51474 32.1656
rfemur 18.5637 -60.6314 -110.057
rtibia 144.496
rfoot -38.8542 55.5118
rtoes -5.98421
lfemur -65.4315 34.1034 -1.12354
ltibia 139.906
lfoot -21.1687 -37.9449
ltoes 0.824491
108
root -2.73334 8.60799 -2.7516 316.657 -81.4834 -343.172
lowerback 53.4656 -4.25583 0.822813
upperback 6.63571 -6.74997 -2.49358
thorax -13.9643 -3.54846 0.268408
lowerneck 5.63141 2.25873 -1.76108
upperneck -4.83086 2.72346 -2.33698
head -2.49198 1.45777 -0.547755
rclavicle -1.39149e-014 -3.06128e-014
rhumerus 67.2881 6.26449 -83.5168
rradius 11.749
rwrist 50.3384
rhand -22.3719 14.7088
rfingers 7.12502
rthumb 4.04964 -15.2324
lclavicle -1.39149e-014 -3.06128e-014
lhumerus 66.0709 -5.25837 73.5143
lradius 14.5302
lwrist -50.3936
lhand -23.9753 2.41766
lfingers 7.12502
lthumb 2.50119 32.3827
rfemur 13.2935 -62.2381 -101.71
rtibia 142.998
rfoot -35.1193 54.255
rtoes -5.87999
lfemur -64.9092 31.8633 -2.53553
ltibia 138.345
lfoot -21.1206 -36.7399
ltoes 1.22276
